<svg xmlns="http://www.w3.org/2000/svg" xmlns:svg="http://www.w3.org/2000/svg" id="svg2" width="105.758" height="136.662" version="1.1"><defs id="defs4"><clipPath id="clipPath3044" clipPathUnits="userSpaceOnUse"><path id="path3046" d="m 55.92,727.5 501.66,0 0,-646.38 -501.66,0 0,646.38 z" clip-rule="evenodd"/></clipPath></defs><metadata id="metadata7"/><g id="layer1" display="inline" transform="translate(-373.8554,-293.40569)"><path id="path3014" fill="#000" fill-opacity="1" fill-rule="nonzero" stroke="none" d="m 663.73442,972.3719 0.90004,0 0,-1.875 -0.90004,0 0,1.875 z"/><path id="path3030" fill="#fff" fill-opacity="1" fill-rule="evenodd" stroke="none" d="m 670.18442,56.3969 -19.05,25.5 24.15,0 0,-25.5"/><text id="text3032" x="573.284" y="75.222" font-size="15"><tspan id="tspan3034" x="573.284 584.952 591.763 601.491 611.219 620.948 631.637 638.447" y="75.222" fill="#fff" fill-opacity="1" fill-rule="nonzero" stroke="none" font-family="Arial" font-size="17.475" font-stretch="normal" font-variant="normal" font-weight="bold" writing-mode="lr-tb" style="-inkscape-font-specification:Arial Bold">Pressure</tspan></text><path id="path3052" fill="none" stroke="#000" stroke-dasharray="none" stroke-linecap="round" stroke-linejoin="bevel" stroke-miterlimit="10" stroke-opacity="1" stroke-width=".434" d="m 468.13683,358.19945 c 3.06469,-0.0407 5.20357,1.6737 6.51389,4.34259 1.20401,3.42281 0.51568,4.81681 -1.30278,7.67267 -3.20568,3.32178 -9.05461,2.82646 -11.29075,-1.30278 -2.55504,-3.94301 -0.0143,-9.57934 4.48735,-10.56773 l 1.59229,-0.14475 z m -82.80107,0 c 3.0647,-0.0407 5.20433,1.6737 6.51389,4.34259 1.20401,3.42281 0.51569,4.81681 -1.30278,7.67267 -3.20492,3.32178 -9.05386,2.82646 -11.29074,-1.30278 -2.55429,-3.94301 -0.0136,-9.57934 4.48734,-10.56773 l 1.59229,-0.14475 z m 88.44644,-2.60556 c 5.94468,3.29615 7.29344,10.76903 3.47408,16.35786 -3.75152,5.27143 -11.89992,6.2176 -16.64662,1.73704 m -80.91927,1.30278 c -5.94468,-3.29615 -7.29345,-10.76904 -3.47408,-16.35786 3.75151,-5.27219 11.89991,-6.21761 16.64661,-1.73704 m 64.70617,17.66064 c -6.41664,20.01514 -28.71993,28.90464 -47.04553,18.5284"/><path id="path3054" fill="none" stroke="#000" stroke-dasharray="none" stroke-linecap="round" stroke-linejoin="round" stroke-miterlimit="10" stroke-opacity="1" stroke-width=".434" d="m 473.92695,375.13632 -30.97793,18.09414 m 30.97793,-37.78132 -30.97793,-18.0949 m -63.40339,18.0949 30.97793,-18.0949 m -30.97793,37.78208 30.97793,18.09414"/><path id="path3056" fill="none" stroke="#000" stroke-dasharray="none" stroke-linecap="round" stroke-linejoin="bevel" stroke-miterlimit="10" stroke-opacity="1" stroke-width=".434" d="m 395.90274,356.02815 c 6.41739,-20.0159 28.72069,-28.90464 47.04628,-18.52916 m 14.76483,37.20307 0.43426,-0.86852 0.72452,-0.43426 0.86851,0 0.72377,0.43426 m -64.70692,-17.95014 -0.43426,0.86851 -0.72377,0.43426 -0.86852,0 -0.72376,-0.43426"/><path id="path3060" fill="none" stroke="#000" stroke-dasharray="none" stroke-linecap="round" stroke-linejoin="round" stroke-miterlimit="10" stroke-opacity="1" stroke-width=".434" d="m 419.064,293.63803 -13.75155,0 m 13.75155,7.52716 -13.75155,0 m 15.48859,19.68719 -17.22563,0 1.73703,-19.68719 m 15.48859,19.68719 -1.73703,-19.68719 0,-7.52716 m -13.75156,0 0,7.52716 m 13.75156,19.68719 0,9.11945 m -13.75156,-9.11945 0,9.11945 m -1.73703,3.03981 17.22563,0 0,0.57902 m -17.22563,-0.57902 0,8.39569 m 15.48859,-11.4355 1.73703,3.03981 m -17.22562,0 1.73703,-3.03981 13.75155,0 m 31.26745,99.88269 -1.73704,0 m -1.73704,-21.56897 5.35587,0 0,-12.59353 m -5.35587,12.59353 0,-17.37114 m -3.76358,17.37114 0,-15.19984 m -5.35587,15.19984 0,-12.59353 m -3.76358,12.59353 0,-11.58026 m -5.35662,11.58026 0,-10.85649 m -3.76359,10.85649 0,-10.85649 m -5.35586,10.85649 0,-11.58026 m -9.11945,11.58026 0,-15.19984 m 5.35586,15.19984 0,-12.59353 m -14.47531,12.59353 0,-20.41095 m 5.35586,20.41095 0,-17.37114 m 36.47856,17.37114 -5.35587,0 m -3.76359,0 -5.35662,0 m -22.00248,0 -5.35586,0 m 14.47531,0 -5.35587,0 m 14.47532,0 -5.35587,0 m 31.41219,0 0,16.2131 m -2.75031,-16.2131 0,16.2131 m -6.36914,-16.2131 0,16.2131 m -2.75031,-16.2131 0,16.2131 m -6.36914,-16.2131 0,16.2131 m -2.75031,-16.2131 0,16.2131 m -6.36989,-16.2131 0,16.2131 m -2.75031,-16.2131 0,16.2131 m -6.36914,-16.2131 0,16.2131 m -2.75031,-16.2131 0,16.2131 m -6.36914,-16.2131 0,16.2131 m -2.60555,-16.2131 0,16.2131 m 38.64984,5.35587 -1.88179,0 m -7.23766,0 -1.88179,0 m 19.97594,0 0.57901,-5.35587 m -2.31605,5.35587 -0.43426,-5.35587 m -6.8034,5.35587 0.43426,-5.35587 m -9.55371,5.35587 0.43426,-5.35587 m 6.8034,5.35587 -0.43426,-5.35587 m -8.68519,5.35587 -0.43426,-5.35587 m -8.68594,5.35587 -0.43426,-5.35587 m 2.75031,0 -0.43426,5.35587 -1.88179,0 m -8.97469,0 -0.57902,-5.35587 m 2.75031,0 -0.43426,5.35587 -1.73703,0 m -9.11945,0 -0.43426,-5.35587 m 2.60555,0 -0.43426,5.35587 -1.73703,0"/><path id="path3062" fill="none" stroke="#000" stroke-dasharray="none" stroke-linecap="round" stroke-linejoin="bevel" stroke-miterlimit="10" stroke-opacity="1" stroke-width=".434" d="m 452.21323,395.69202 c -3.20568,-0.33776 -3.20568,-4.2951 0,-4.63285"/><path id="path3501" fill="none" stroke="#000" stroke-dasharray="none" stroke-linecap="round" stroke-linejoin="miter" stroke-miterlimit="4" stroke-opacity="1" stroke-width=".422" d="m 452.02638,391.13464 0,-3.2689"/></g></svg>